<?xml version="1.0" encoding="UTF-8"?>
<svg id="Layer_2" data-name="Layer 2" xmlns="http://www.w3.org/2000/svg" viewBox="0 0 233.03 340">
  <defs>
    <style>
      .cls-1 {
        fill: #ffeace;
      }

      .cls-2 {
        fill: #5e0e0c;
      }
    </style>
  </defs>
  <g id="Layer_1-2" data-name="Layer 1">
    <g>
      <path class="cls-1" d="M69.93,79.83c1.2-24.67,21.58-44.31,46.56-44.31h0c25.74,0,46.61,20.87,46.61,46.61h0s.06,0,.06,0V0h-93.23v79.78s0,.04,0,.06Z"/>
      <path class="cls-2" d="M229.63,6.88c-.33-.44-.68-.86-1.05-1.27-.18-.2-.37-.4-.57-.6-.58-.58-1.2-1.12-1.86-1.61-.66-.49-1.36-.94-2.08-1.34-.49-.26-.99-.5-1.5-.72-.77-.33-1.57-.6-2.39-.81-.27-.07-.55-.13-.83-.19-1.12-.23-2.27-.35-3.45-.35h-52.68v82.13h-.06c0,.49,0,.98-.03,1.47,0,.12,0,.23-.01.35-.02.41-.04.82-.06,1.24,0,.07,0,.15-.01.22-.07,1.03-.18,2.05-.31,3.06h0v.77h-.11c-.06.37-.12.74-.18,1.1-.02.12-.04.23-.07.35-.05.25-.09.5-.14.74-.03.14-.06.28-.09.42-.05.22-.09.44-.14.66-.03.15-.07.3-.1.44-.05.21-.1.42-.15.63-.04.15-.08.3-.12.45-.05.21-.11.41-.17.61-.04.15-.09.3-.13.45-.06.2-.12.41-.18.61-.04.15-.09.3-.14.44-.07.21-.13.41-.2.62-.05.14-.09.28-.14.42-.07.22-.15.43-.23.65-.05.13-.09.26-.14.38-.09.25-.19.49-.28.74-.04.09-.07.19-.11.28-.13.34-.27.67-.41,1.01-.03.06-.05.12-.08.18-.12.27-.23.54-.35.81-.05.12-.11.23-.16.35-.1.21-.19.42-.29.63-.06.13-.13.26-.19.39-.09.19-.19.39-.29.58-.07.14-.14.27-.21.4-.1.19-.19.37-.29.56-.07.14-.15.27-.22.4-.1.18-.2.36-.3.54-.08.13-.15.27-.23.4-.1.18-.21.36-.32.54-.08.13-.16.26-.23.39-.11.18-.23.37-.34.55-.08.12-.15.24-.23.36-.13.19-.25.39-.38.58-.07.11-.14.21-.21.32-.16.24-.33.47-.49.71-.04.06-.08.12-.12.17-.21.29-.42.58-.63.87-.06.08-.12.16-.18.24-.16.21-.31.41-.47.62-.08.11-.17.21-.25.31-.14.17-.28.35-.42.52-.09.11-.19.22-.28.33-.14.16-.27.33-.41.49-.1.11-.2.23-.3.34-.14.16-.27.31-.41.47-.1.11-.2.22-.31.34-.14.15-.28.3-.42.46-.1.11-.21.22-.31.33-.14.15-.29.3-.44.45-.1.11-.21.21-.31.32-.15.15-.31.3-.47.46-.1.1-.2.19-.3.29-.18.17-.35.33-.53.49-.08.08-.17.16-.25.23-.26.24-.53.48-.8.71h0c-.27.24-.54.47-.82.69-.09.07-.18.14-.26.21-.19.15-.38.31-.57.46-.11.09-.22.17-.33.26-.17.13-.35.27-.52.4-.12.09-.24.18-.36.26-.17.12-.34.25-.51.37-.12.09-.25.18-.37.26-.17.12-.34.24-.51.35-.13.09-.25.17-.38.26-.17.12-.35.23-.52.34-.13.08-.25.16-.38.24-.18.11-.36.23-.54.34-.12.08-.25.15-.37.23-.19.12-.39.23-.58.34-.12.07-.23.14-.35.2-.23.13-.46.26-.69.38-.08.05-.17.09-.25.14-.32.17-.63.34-.96.5-.06.03-.12.06-.18.09-.26.13-.52.26-.79.39-.11.05-.23.11-.34.16-.21.1-.42.2-.64.3-.13.06-.26.12-.39.18-.2.09-.4.18-.6.26-.14.06-.28.12-.42.18-.2.08-.39.16-.59.24-.14.06-.29.11-.43.17-.2.08-.39.15-.59.23-.14.05-.29.11-.43.16-.2.07-.4.14-.6.21-.14.05-.29.1-.43.15-.21.07-.42.14-.63.2-.14.04-.28.09-.41.13-.23.07-.45.14-.68.2-.12.04-.25.07-.37.11-.29.08-.58.16-.87.23-.07.02-.13.04-.2.05-.36.09-.72.18-1.08.26-.1.02-.19.04-.29.06-.26.06-.53.12-.79.17-.13.03-.27.05-.4.08-.23.05-.46.09-.69.13-.15.03-.3.05-.45.08-.22.04-.44.07-.66.11-.16.02-.31.05-.47.07-.22.03-.43.06-.65.09-.16.02-.32.04-.48.06-.22.03-.43.05-.65.07-.16.02-.32.03-.48.05-.22.02-.44.04-.67.06-.16.01-.31.03-.47.04-.23.02-.46.03-.7.04-.15,0-.29.02-.44.03-.26.01-.52.02-.78.03-.12,0-.24,0-.37.01-.38,0-.77.01-1.15.01h0c-25.74,0-46.61-20.87-46.61-46.61h0c0-.4,0-.79.01-1.18,0-.37.02-.75.04-1.12,0-.02,0-.04,0-.06V0H17.19c-3.84,0-7.39,1.27-10.25,3.4-.44.33-.86.68-1.27,1.05-.41.37-.79.76-1.16,1.16-.37.41-.72.83-1.05,1.27-1.15,1.54-2.05,3.28-2.63,5.16C.33,13.65.06,15.36.06,17.14v156.04h232.97V17.14c0-1.77-.27-3.49-.77-5.1-.58-1.88-1.48-3.62-2.63-5.16Z"/>
      <path class="cls-1" d="M0,173.18h0v149.68c0,3.25.91,6.29,2.48,8.89.43.71.91,1.38,1.43,2.01.7.85,1.48,1.62,2.32,2.32.42.35.86.68,1.32.99.68.46,1.4.88,2.15,1.24,2.25,1.08,4.77,1.69,7.43,1.69h52.74v-122.39h93.23v93.23h0v29.16h52.74c2.37,0,4.62-.48,6.67-1.35,1.54-.65,2.96-1.52,4.23-2.57.42-.35.83-.72,1.22-1.11.39-.39.76-.79,1.11-1.22.7-.85,1.32-1.76,1.84-2.73.4-.73.74-1.49,1.03-2.28.19-.52.36-1.06.5-1.61.35-1.37.54-2.8.54-4.28v-149.68H0Z"/>
      <polyline class="cls-2" points="69.87 310.84 69.87 340 163.1 340 163.1 310.84 69.87 310.84"/>
    </g>
  </g>
</svg>
