<?xml version="1.0" encoding="UTF-8"?>
<svg id="Layer_2" data-name="Layer 2" xmlns="http://www.w3.org/2000/svg" viewBox="0 0 241.69 43.54">
  <g id="Layer_1-2" data-name="Layer 1">
    <g id="GnAEqg">
      <g>
        <path d="M21.19,18.46s.13.19.25.1l.18-.35-.49-12.86,11.95-1.35,1.33,37.57c-3.9.14-7.86,1.07-11.72,1.33-.34.02-.22,0-.25-.25-.25-1.88-.08-3.78-.16-5.66l-.51-12.88-8.97,1.84.47,15.43-11.94,1.35L0,5.17l11.96-1.17.5,14.46c2.91.01,5.82-.01,8.73,0Z"/>
        <path d="M102.24,43.05c-1.34-1.85-2.76-3.64-4.01-5.55-2.25-3.43-3.98-7.64-7.39-10.06l.17,14.14-11.4,1.15-.98-33.89,14.2-4.68c6.45.62,17.32,1.68,17.87,10.07.37,5.67-4.51,7.5-8.8,9.47,4.47,3.85,6.41,9.76,10.8,13.63l-10.45,5.72ZM90.59,22.95c3.74-.78,8.73-2.58,8.32-7.24-.29-3.26-5.59-6.2-8.57-6.56l.25,13.8Z"/>
        <path d="M73.96,41.73l-11.36,1.34c-.89-1.65-.95-3.54-1.35-5.32l-9.13,5.31c-3.88-1.59-8.66-3.97-11.32-7.31-2.73-3.42-1.6-10.76-.86-14.83.51-2.83,1.23-5.64,2.1-8.37,3.83-2.65,8.07-4.72,12.43-6.35,1.29-.48,3.74-1.5,4.99-1.67,1.13-.16,5.02.61,6.41.82,1.9.29,3.82.53,5.69.96l1.07,28.85c.26,2.23.57,4.44,1.33,6.57ZM55.62,9.17c-5.09,6-5.84,14.6-4.34,22.09.61.67,4.38,4.16,4.99,4.11.67-.47,1.27-1.02,1.83-1.61.69-.72,2.81-3.22,2.91-4.07.06-.52.02-1.29,0-1.84-.09-2.97-.38-5.98-.51-8.96-.1-2.31-.1-4.65-.19-6.96l-4.69-2.75Z"/>
        <path d="M187.61,3.88c7.3,2.49,14.56,3.95,16.76,12.41,2.12,8.13-.88,13.73-5.43,20.17-.7.99-2.95,4.22-3.92,4.56-3.54,1.23-8.4,1.41-12.08,2.52-4.71-.57-13.71-6.93-14.38-11.72-.76-5.39.03-12.63,2.34-17.58,1.21-2.59,2.29-3.32,4.61-4.87,3.69-2.46,7.8-4.38,12.1-5.49ZM185.08,9.71c-5.22,4.3-5.84,12.4-4.15,18.56,1,3.67,3.43,7.45,7.15,8.75,2.14-1.78,3.51-4.31,4.28-6.96,1.11-3.86,1.34-9-.09-12.8-1.24-3.31-3.9-6.24-7.19-7.55Z"/>
        <path d="M227.06,0v4.16h14.63l-3.16,6.57-11.13.92c.04,2.52.06,5.04.15,7.56.01.39.17.76.18,1.15.23,6.95-.07,14.13,1.82,20.87l-11.7,1.51c-1.25-3.14-1.54-6.57-1.93-9.91l-.5-20.2-9.4.67-.24-.24,4.34-8.7c.32-.2,4.33.1,5.3-.1,3.23-.65,7.62-3.15,10.99-4.13.21-.06.41-.15.63-.11Z"/>
        <path d="M166.55,11.81l-10.89,3.95c-1.23-2.1-2.63-4.24-5.07-5.04-2.53,2.57-4.09,6.73-4.32,10.31-.11,1.75.15,5.87.61,7.53.51,1.83,4.66,4.87,6.37,5.77,4.02,2.12,8.19,2.26,12.64,1.58l-2.74,5.66c-8.96,2.82-22,2.9-27.58-6.01-1.18-1.89-1.51-6.9-1.44-9.21.1-3.35,1.38-9.29,3.14-12.16,1.99-3.24,9.49-7.02,13.07-8.37,1.14-.43,3.89-1.46,4.99-1.5,1.68-.07,5.65,1.89,7.12,2.87,1.74,1.16,3.27,2.67,4.1,4.62Z"/>
        <polygon points="128.15 4 129.46 41.29 117.51 42.73 116.19 5.17 128.15 4"/>
      </g>
    </g>
  </g>
</svg>
