<?xml version="1.0" encoding="UTF-8"?>
<svg id="Layer_2" data-name="Layer 2" xmlns="http://www.w3.org/2000/svg" viewBox="0 0 348.62 107.96">
  <g id="Layer_1-2" data-name="Layer 1">
    <g id="oBwlcw.tif">
      <g>
        <path d="M22.98,1.29c.22.5.47.96.53,1.53.48,4.36-.23,9.79-.03,14.29.03.56.1,1.05.26,1.57.14.1,2.06-.7,2.42-.84,5.98-2.42,11.23-2.82,17.26-.1,8.32,5.91,9.49,14.55,9.67,24.06.38,19.98.63,40.79-.04,60.74-.03.92.29,4.45-.04,4.92-.4.56-5.92.16-6.87.17-4.43.02-9.11-.07-13.81-.08-.32,0-.54.35-.71.36-.13,0-1.78-.66-1.77-1.04l-.23-45.22c.35-4.67.06-9.36-.07-14.02-.07-2.62.51-8.07-.76-10.14-.37-.61-1.89-1.96-2.55-2.05-.59-.08-2.15,1.35-2.36,1.9-.47,1.23-.11,7.47-.12,9.32-.16,18.33.58,37.05,0,55.43-.03.93-.16,4.56-.6,4.96-.57.52-2.82.57-3.69.62-4.54.24-10.65.16-15.23-.05-.67-.03-3.78-.1-4.01-.5L0,2.11c.15-.98,1.29-.91,2.1-.99,4.05-.43,9.09.5,13.28-.13l7.6.3Z"/>
        <path d="M97.99,17.64c1.92.86,4.78,2.14,6.39,3.55.27.24,2.27,2.83,2.61,3.32,4.45,6.38,3.38,12.64,3.54,19.94.45,20.69.89,40.96.67,61.91-.92,2.39-2.68,1.4-4.42,1.37-5.34-.07-11.16.3-16.43-.06-.37-.03-.75-.2-1.13-.2-.12-.13-.05-1.81-.23-2.29-.11-.3.12-.38-.4-.36-.84.42-2.07.67-2.84,1-.23.1-.22.43-.49.54-4.25,1.65-8.68,1.89-13.08.59-10.05-2.98-13.19-11.51-13.28-21.34-.06-5.83-.25-14.97.85-20.47,2.23-11.13,14.28-13.29,22.85-18.08,1.12-.63,2.62-1.34,3.61-2.33,1.95-1.95,1.78-4.85,1.51-7.51s-3.64-3.65-5.85-2.52c-3.13,1.61-1.32,9.7-2.39,12.5l-19.19-.02c-.74-.22-1.01-1.64-1.08-2.32-.2-2.11.01-6.93.17-9.14,1.16-16.61,13.43-20.82,28.26-20.44,2.69.07,7.46.76,9.88,1.74.32.13.35.55.48.6ZM82.02,89.48c1.76,1.46,5.15,1.75,6.2-.74l-.25-28.54c-.43-1.75-2.24.37-2.83.83-.45.35-.96.29-1.48.89-2.08,2.37-2.5,6.61-2.65,9.63-.22,4.36-.32,10.7,0,15.01.09,1.19.05,2.13,1.02,2.94Z"/>
        <path d="M300.47,19.01c6.46,5.29,7.41,9.97,8.33,17.94,1.03,8.92.65,18.51.76,27.56.11,9.24,1.19,20.93-2.11,29.68-1.34,3.55-3.68,6.91-7.02,9.2-6.73,4.61-21.8,4.38-29.45,2.07-17.49-5.28-14.24-27.83-14.28-42.11-.03-10.43-1.44-26.03,2.16-35.59,3.9-10.34,15.28-13.15,25.36-13.4,5.6-.14,11.87,1.08,16.25,4.67ZM286.39,86.09c1.41-2.24,1.2-6.07,1.23-8.76.1-7.29-.35-14.69-.41-21.97-.04-5.56.76-12.22.01-17.68-.39-2.89-2.62-5.74-5.72-4.24s-2,5.33-2.03,7.86c-.16,12.65.31,26.26.31,38.28,0,1.38,0,3.52.16,4.82.25,2.1,2.92,3.95,4.94,3.22.27-.1.29-.46.49-.61.44-.33.53-.15,1.01-.91Z"/>
        <path d="M230.06,55.91c-.61-5.27-.06-10.72-.27-16.07-.04-.96-.11-3.51-.32-4.28-.3-1.05-1.8-2.59-2.96-2.63-.45-.02-2.51.51-2.87.78-1.24.94-1.54,3.66-1.62,5.16-.43,7.7.23,16.21.26,23.96.03,5.27.19,10.98.12,15.97-.01.99-.74,2.27.11,2.92l-.5.24c.54.64.22,1.46.43,1.98.88,2.17,5.49,2.24,6.57.13.27-.52.67-3.36.74-4.08.53-5.03-.29-10.11.79-15.06h22.35s.39.58.39.58c-.1,2.33.23,4.68.26,7,.19,15.35.36,31.02-17.89,34.19-8.83,1.54-22.09.54-28.78-5.97-5.68-5.52-6-12.24-6.42-19.73-.76-13.52-.51-28.55.01-42.1.25-6.55,0-10.11,3.77-15.84,2.23-3.39,7.84-7.56,11.91-7.96,6.76-.66,13.57-1.18,20.53-.27,4.13.54,6.07,1.32,9.08,4.24,6.38,6.18,7.13,14.83,7.46,23.23.16,4.15-.28,8.35.04,12.5-.75,1.2-1.21,1.29-2.49,1.39-4.78.4-9.98-.3-14.81.01l-5.89-.29Z"/>
        <path d="M161.37,16.34c1.21.6,4.23,3.63,5.01,4.78.51.75.59,1.51.88,1.97.34.55,1.18,1.13,1.54,1.9,2.31,4.94,2.03,17.73,1.95,23.47,0,.7.55,1.56,0,2.65s-3.45.95-4.6.99c-4.5.14-9.09-.13-13.58-.2-2.24-.04-4.53.58-6.73-.29-.31-.19-.39-1.19-.42-1.57-.28-3.5.09-7.6-.27-11.11-.12-1.21-.45-3.25-1.49-3.96-.2-.14-.56-.02-.69-.09-.24-.14-.27-.38-.4-.43-.71-.28-1.7-.53-2.47-.39-.18.03-1.78.83-1.86.92-1.35,1.57-.68,8.52-.66,10.9.2,18.2.65,36.5.18,54.78-.03,1.18.3,4,.07,5-.17.76-.98,1.71-1.83,1.72h-20.89s-.48-.95-.48-.95c-.07-14.69-.24-29.5-.58-44.06l-.02-46.11,1.46-.66c6.18.35,13.24-.5,19.32,0,.52.04,2.07.21,2.38.53l.61,2.31c1.23-.42,2.56-1.16,3.75-1.57,6.48-2.25,12.73-3.05,19.17-.5.25.1.53-.08.64-.03Z"/>
        <path d="M346.25,15.29c.25.08.62.96.68,1.26.18.84.2,8.89.03,9.75-.69,3.59-5.86,1.64-8.61,2.41-.57.16-.55.42-.63.93-.34,2.3-.12,6.09-.09,8.53.14,13.79.53,27.71.67,41.32.03,3.42-1.07,6.7.98,9.79,2.29,3.46,6,1.97,9.28,3.36l-.2,6.02c.13,1.52.62,6.16-.29,7.22-.57.67-4.63.38-5.72.4-8.05.12-20.66,1.38-25.28-6.93-3.35-6.03-2.33-22.76-2.42-30.21-.15-13.05-.21-26.16-.31-39.19-.44-2.47-4.35-.72-6-1.63l-.41-12.54c.79-1.62,6.42.64,7.07-1.45l.11-11.97c.18-.73.67-1.75,1.44-1.98l18.3.04,2.25.4c1.25,4.69,0,9.72.78,14.47h8.36Z"/>
        <path d="M197.54,103.62l-.48.11c.9.92-.31,2.76-1.39,2.98l-21.52-.19c-.59-.07-1.58-.26-1.77-.89-.16-.52-.29-3.71-.31-4.55-.01-.62.28-1.24.27-1.93-.24-23.24-.34-46.61-.49-69.96-.02-3.49-.49-7.45-.27-10.89.1-1.53.14-1.87,1.37-2.77.3.07.59.25.92.22,5.58-.51,11.39-.31,17-.2,3.01.06,5.81-.8,6.04,3.25.18,3.17-.14,6.73-.13,9.93.08,16.65.33,33.38.4,50.14.03,7.49-.18,14.95.12,22.45.04.88-.4,1.65.22,2.31Z"/>
        <path d="M196.28,1.07c.73.73.23,8.82.15,10.27-.04.81.55,1.49-.58,2.13l-23.31-.2-.87-.45-.46-10.44c.11-1.94,2.4-2.01,3.91-2.1,4.99-.29,14-.48,18.8.13.48.06,2.08.39,2.36.67Z"/>
      </g>
    </g>
  </g>
</svg>
