<?xml version="1.0" encoding="UTF-8"?>
<svg id="Layer_2" data-name="Layer 2" xmlns="http://www.w3.org/2000/svg" viewBox="0 0 169.23 33.72">
  <defs>
    <style>
      .cls-1 {
        fill: #fff;
      }
    </style>
  </defs>
  <g id="Layer_1-2" data-name="Layer 1">
    <g>
      <path class="cls-1" d="M5.14.3v8.6h.08c.99-1.71,2.62-2.57,4.88-2.57,1.64,0,2.9.45,3.78,1.34s1.32,2.34,1.32,4.35v14.85h-5.14v-13.81c0-1.04-.17-1.77-.52-2.18-.35-.41-.91-.61-1.67-.61-1.81,0-2.72,1.1-2.72,3.31v13.29H0V.3h5.14Z"/>
      <path class="cls-1" d="M18.57,12.5c0-1.17.19-2.14.56-2.92.37-.78.87-1.42,1.51-1.9s1.38-.83,2.23-1.04c.86-.21,1.77-.32,2.74-.32,1.54,0,2.78.15,3.72.45.94.3,1.67.72,2.2,1.27.52.55.88,1.2,1.06,1.95.19.76.28,1.58.28,2.47v10.53c0,.94.04,1.67.13,2.2.09.52.25,1.08.5,1.67h-4.91c-.17-.32-.3-.66-.39-1.02-.09-.36-.17-.71-.24-1.06h-.07c-.6,1.04-1.28,1.72-2.07,2.03-.78.31-1.79.46-3.03.46-.89,0-1.65-.16-2.27-.46-.62-.31-1.12-.74-1.49-1.28s-.65-1.16-.82-1.84c-.17-.68-.26-1.36-.26-2.03,0-.94.1-1.76.3-2.44.2-.68.5-1.26.91-1.75.41-.48.93-.89,1.56-1.21.63-.32,1.4-.61,2.29-.86l2.9-.78c.77-.2,1.3-.47,1.6-.82.3-.35.45-.86.45-1.53,0-.77-.18-1.37-.54-1.81-.36-.43-.97-.65-1.84-.65-.79,0-1.39.24-1.79.71-.4.47-.59,1.1-.59,1.9v.56h-4.62v-.48ZM26.83,17.51c-.4.16-.76.28-1.08.35-1.04.22-1.79.6-2.23,1.12-.45.52-.67,1.23-.67,2.12,0,.77.15,1.43.45,1.97s.79.82,1.49.82c.35,0,.71-.06,1.08-.17.37-.11.71-.29,1.02-.54.31-.25.56-.57.76-.97.2-.4.3-.87.3-1.41v-3.95c-.35.27-.72.49-1.12.65Z"/>
      <path class="cls-1" d="M41.42,6.85v2.68h.07c.52-.97,1.15-1.74,1.9-2.33.74-.58,1.65-.88,2.72-.88.15,0,.3,0,.46.02.16.01.32.03.46.06v4.91c-.27-.02-.54-.04-.8-.06s-.53-.02-.8-.02c-.45,0-.89.06-1.34.19-.45.12-.86.33-1.23.61s-.67.66-.89,1.12c-.22.46-.33,1.02-.33,1.69v12.02h-5.14V6.85h4.91Z"/>
      <path class="cls-1" d="M54.23,0v4.39h-5.14V0h5.14ZM54.23,6.85v20.02h-5.14V6.85h5.14Z"/>
      <path class="cls-1" d="M67.38,12.62c-.06-.47-.17-.9-.33-1.28s-.39-.69-.69-.93c-.3-.24-.69-.35-1.19-.35-.62,0-1.13.14-1.53.43-.4.29-.69.71-.89,1.27-.2.56-.33,1.27-.41,2.12-.07.86-.11,1.87-.11,3.03,0,1.24.04,2.3.11,3.18.08.88.21,1.61.41,2.18.2.57.48.99.84,1.25s.83.39,1.4.39c.87,0,1.5-.37,1.9-1.12.4-.74.6-1.94.6-3.57h4.91c0,2.63-.59,4.63-1.77,6.01s-3.13,2.07-5.86,2.07c-1.29,0-2.41-.16-3.37-.46-.96-.31-1.75-.87-2.38-1.67-.63-.81-1.11-1.89-1.43-3.24-.32-1.35-.48-3.03-.48-5.04s.2-3.76.6-5.12c.4-1.35.95-2.43,1.67-3.24.72-.81,1.58-1.37,2.57-1.69.99-.32,2.08-.48,3.28-.48,2.38,0,4.17.7,5.38,2.08,1.2,1.39,1.8,3.28,1.8,5.66h-4.91c0-.5-.03-.98-.09-1.45Z"/>
      <path class="cls-1" d="M74.81,12.32c.27-1.32.72-2.41,1.34-3.29s1.43-1.55,2.44-2.01,2.24-.69,3.7-.69c1.54-.02,2.82.18,3.83.61,1.02.43,1.82,1.1,2.42,1.99.6.89,1.02,2,1.27,3.31s.37,2.85.37,4.61-.14,3.23-.41,4.54c-.27,1.32-.72,2.41-1.34,3.29-.62.88-1.43,1.53-2.44,1.95-1,.42-2.24.63-3.7.63-1.54.02-2.82-.17-3.83-.58-1.02-.41-1.82-1.05-2.42-1.94s-1.02-1.99-1.27-3.31-.37-2.86-.37-4.6.14-3.22.41-4.54ZM79.61,19.69c.05.87.17,1.61.35,2.23.19.62.46,1.1.84,1.45s.87.52,1.49.52c1.04,0,1.76-.54,2.16-1.64.4-1.09.6-2.89.6-5.4s-.2-4.3-.6-5.4c-.4-1.09-1.12-1.64-2.16-1.64-.62,0-1.12.17-1.49.52s-.65.83-.84,1.45c-.19.62-.3,1.37-.35,2.23-.05.87-.08,1.81-.08,2.83s.02,1.96.08,2.83Z"/>
      <path class="cls-1" d="M99.18,1.12v5.73h2.98v3.5h-2.98v10.83c0,.79.12,1.36.35,1.69.24.33.73.5,1.47.5.2,0,.4,0,.6-.02.2-.01.38-.03.56-.06v3.57c-.57,0-1.12.02-1.66.06-.53.04-1.1.06-1.69.06-.99,0-1.81-.07-2.44-.2-.63-.14-1.12-.41-1.45-.82-.33-.41-.56-.95-.69-1.62s-.19-1.51-.19-2.53v-11.46h-2.6v-3.5h2.6V1.12h5.14Z"/>
      <path class="cls-1" d="M109.16,26.87h-4.91v-5.81h4.91v5.81Z"/>
      <path class="cls-1" d="M113.32,13.25c.5-2.13,1.45-3.66,2.87-4.58s3.2-1.38,5.36-1.38c.47,0,1.05.06,1.73.17.68.11,1.33.33,1.95.67.62.33,1.15.79,1.58,1.38.43.58.65,1.36.65,2.33,0,.42-.06.97-.19,1.66-.12.68-.26,1.36-.41,2.03-.15.67-.29,1.28-.43,1.82s-.22.89-.24,1.04c-.12.5-.26,1.04-.41,1.64-.15.59-.29,1.18-.41,1.75-.12.57-.23,1.1-.32,1.58-.09.48-.13.86-.13,1.13,0,.35.09.64.26.88.17.24.43.35.78.35.2,0,.41-.02.63-.08.22-.05.43-.1.63-.15l-.22,1.27c-.27.07-.55.12-.84.15-.29.02-.55.04-.8.04-.65,0-1.12-.22-1.41-.67-.3-.45-.45-.88-.45-1.3,0-.2.04-.45.11-.76.07-.31.14-.59.19-.84h-.08c-.37.69-.84,1.29-1.41,1.79-.57.5-1.18.91-1.82,1.23-.65.32-1.32.56-2.01.71-.7.15-1.35.22-1.97.22-.82,0-1.59-.09-2.31-.28-.72-.19-1.35-.48-1.88-.89-.53-.41-.96-.94-1.26-1.58-.31-.64-.47-1.44-.47-2.38,0-1.21.24-2.21.71-2.98.47-.77,1.1-1.36,1.88-1.79s1.67-.71,2.68-.88c1-.16,2.05-.25,3.14-.28,1.34-.05,2.46-.14,3.35-.28.89-.14,1.61-.35,2.16-.63.54-.29.94-.66,1.17-1.14.24-.47.35-1.07.35-1.79,0-1.19-.37-2.14-1.1-2.85-.73-.71-1.97-1.06-3.7-1.06s-3.11.38-4.21,1.14-1.85,1.95-2.27,3.59h-1.45ZM125.31,16.08h-.07c-.27.27-.66.49-1.15.65s-1.03.3-1.6.41c-.57.11-1.15.19-1.73.24s-1.07.09-1.47.11c-.89.03-1.77.09-2.64.19s-1.64.31-2.33.63-1.23.79-1.66,1.4-.63,1.43-.63,2.47c0,.72.14,1.33.41,1.82.27.5.63.9,1.08,1.21.45.31.96.53,1.54.67.58.14,1.2.21,1.84.21,1.14,0,2.14-.2,3-.6.86-.4,1.59-.94,2.2-1.62.61-.68,1.12-1.47,1.53-2.36s.75-1.84,1.02-2.83l.67-2.61Z"/>
      <path class="cls-1" d="M133.57,7.74h1.41l-.82,3.72h.07c.3-.57.69-1.11,1.17-1.62.48-.51,1.04-.95,1.67-1.32.63-.37,1.31-.67,2.05-.89.73-.22,1.49-.33,2.29-.33,1.26,0,2.34.2,3.24.61.89.41,1.63.97,2.21,1.67.58.71,1,1.54,1.27,2.51.26.97.39,2.01.39,3.13,0,1.42-.22,2.84-.65,4.28-.43,1.44-1.07,2.74-1.92,3.89-.84,1.15-1.88,2.1-3.11,2.83s-2.64,1.1-4.22,1.1-3.06-.49-4.21-1.47c-1.14-.98-1.92-2.29-2.34-3.93h-.07l-2.61,11.8h-1.41l5.58-25.98ZM138.71,26.09c1.41,0,2.64-.35,3.68-1.04,1.04-.69,1.92-1.58,2.62-2.64s1.23-2.25,1.58-3.54c.35-1.29.52-2.52.52-3.68,0-.97-.12-1.85-.37-2.66-.25-.81-.61-1.51-1.1-2.1-.48-.6-1.09-1.06-1.82-1.4-.73-.33-1.59-.5-2.59-.5-1.39,0-2.62.37-3.68,1.1-1.07.73-1.95,1.65-2.66,2.75-.71,1.1-1.24,2.29-1.6,3.57-.36,1.28-.54,2.47-.54,3.59,0,.74.14,1.51.41,2.29.27.78.66,1.49,1.17,2.12.51.63,1.13,1.15,1.86,1.54.73.4,1.57.6,2.51.6Z"/>
      <path class="cls-1" d="M154.26,7.74h1.41l-.82,3.72h.07c.3-.57.69-1.11,1.17-1.62.48-.51,1.04-.95,1.67-1.32.63-.37,1.31-.67,2.05-.89.73-.22,1.49-.33,2.29-.33,1.26,0,2.34.2,3.24.61.89.41,1.63.97,2.21,1.67.58.71,1,1.54,1.27,2.51.26.97.39,2.01.39,3.13,0,1.42-.22,2.84-.65,4.28-.43,1.44-1.07,2.74-1.92,3.89-.84,1.15-1.88,2.1-3.11,2.83s-2.64,1.1-4.22,1.1-3.06-.49-4.21-1.47c-1.14-.98-1.92-2.29-2.34-3.93h-.07l-2.61,11.8h-1.41l5.58-25.98ZM159.4,26.09c1.41,0,2.64-.35,3.68-1.04,1.04-.69,1.92-1.58,2.62-2.64s1.23-2.25,1.58-3.54c.35-1.29.52-2.52.52-3.68,0-.97-.12-1.85-.37-2.66-.25-.81-.61-1.51-1.1-2.1-.48-.6-1.09-1.06-1.82-1.4-.73-.33-1.59-.5-2.59-.5-1.39,0-2.62.37-3.68,1.1-1.07.73-1.95,1.65-2.66,2.75-.71,1.1-1.24,2.29-1.6,3.57-.36,1.28-.54,2.47-.54,3.59,0,.74.14,1.51.41,2.29.27.78.66,1.49,1.17,2.12.51.63,1.13,1.15,1.86,1.54.73.4,1.57.6,2.51.6Z"/>
    </g>
  </g>
</svg>
