<?xml version="1.0" encoding="UTF-8"?>
<svg id="Layer_2" data-name="Layer 2" xmlns="http://www.w3.org/2000/svg" viewBox="0 0 1365.65 675.22">
  <g id="Layer_1-2" data-name="Layer 1">
    <g>
      <path d="M42.36,205.56c-66.13,131.36-53.97,298.61,30.45,419.03-23.96-15.3-34.33-45.06-38.14-73.23s-2.83-57.26-11.59-84.31c3.41,2.91,6.83,5.82,10.24,8.73-16.16-33.94-21.07-73.12-13.79-110-.18,4.7,7.5,2.99,10.83-.33,12.5-12.42,24.99-24.84,37.49-37.25-2.01,8.36,3.97,16.97,11.62,20.89s16.57,4.23,25.16,4.47c16.14.45,32.28.9,48.41,1.36-.96,34.67-.31,69.39,1.95,104.01,10.22-10.22,12.41-25.78,13.49-40.19,3.73-50.03.59-100.78,10.4-149.97,11.7-58.67,41.31-112.28,75.27-161.53-60.53,60.68-100.75,141.29-112.83,226.14-23.59-10.75-42.95-30.49-53.23-54.29-5.24,8.62-10.77,17.54-19.26,22.98-8.49,5.44-20.87,6.23-27.93-.97-2.72-2.77-4.39-6.42-5.5-10.14-6.58-21.92,4.54-44.7,12.84-66.03,8.51-21.88,14.27-44.83,17.09-68.13-3.16,20.21-13.28,39.27-28.24,53.22"/>
      <path d="M358.43,156.62c-24.24,25.74-48.83,51.16-73.76,76.24l4.39-8.05c-17.84,10.96-27.5,31.24-34.62,50.93-17.68,48.88-25.65,101.26-23.32,153.19l51.9-129.91c2.41-6.02,5.34-12.61,11.27-15.22,4.23-1.86,9.07-1.25,13.64-.62,15.83,2.21,31.66,4.42,47.49,6.63-2.11,51.47-4.11,103.95,9.87,153.53,2.76-23.36,5.53-46.71,8.29-70.07,2.46-20.8,4.93-41.64,5.41-62.58,1.21-51.93-9.71-103.29-20.58-154.08ZM350.67,260c-1.78,1.57-4.35,1.76-6.72,1.87-9.95.45-19.9.9-29.85,1.35-5.55.25-11.58.36-16.04-2.95-3.66-2.72-4.95-8.69-2.52-12.08-1.78.25-3.58.18-5.38-.34l7.49-1.45c-.89.43-1.58,1.05-2.11,1.79,5.54-.79,10.75-4.88,14.16-9.59,4.51-6.22,7.17-13.68,12.06-19.61,5.4-6.55,13.45-10.85,21.89-11.72,1.21-.12,2.53-.16,3.55.51,1.31.85,1.72,2.54,2.02,4.07,2.54,13.22,3.82,26.67,3.81,40.13,0,2.88-.22,6.11-2.37,8.02Z"/>
      <path d="M437.96,441.36c7.64-38.49-1.3-78.11-10.19-116.33-8.42-36.2-16.85-72.4-25.27-108.6-5.66-24.31-11.35-49.24-8.27-74,29.08-7.91,62.36-3.11,85.34,16.37s32.99,54.45,19.95,81.62c-5.8,12.09-15.88,23.46-14.53,36.8.6,5.94,3.48,11.38,6.18,16.71,18.68,36.91,31.08,76.99,36.48,118.01-39.45-34.78-52.27-90.03-62.98-141.52-1.45-6.98-2.9-14.31-.88-21.15,1.74-5.91,5.88-10.81,8.29-16.48,7.14-16.78-1.99-35.7-11.17-51.45-4.31-7.39-10.43-15.73-18.98-15.19-12.43.79-15.01,18.05-12.82,30.32,2.67,14.96,6.92,29.64,12.65,43.72,7.38,18.16,17.3,35.57,20.73,54.87,2.92,16.45.94,33.35-1.64,49.85-4.96,31.72-12.13,63.1-21.45,93.83"/>
      <path d="M423.21,92.89c96.93-.49,193.85-.99,290.78-1.48,8.35-.04,17.39.14,23.99,5.25,6.6,5.12,8.07,17.15.7,21.07-2.76,1.46-6.02,1.47-9.14,1.44-27.98-.24-55.95-.48-83.93-.71-4.79-.04-9.79-.03-14.05,2.14-7.75,3.95-10.49,13.49-12.18,22.02-14.41,72.89-8.78,148.82-25.49,221.22-4.53,19.61-9.64,43.22,4.62,57.42,11.98,11.92,31.3,10.43,48.17,9.34,48.29-3.11,97.21,4.07,142.56,20.94-8.78,21.26-34.24,30.16-57.18,31.89-25.35,1.92-50.73-1.89-75.98-4.77-114.3-13.03-229.81-7.22-344.7-1.4,71.59-31.89,159.75-8.13,229.26-44.33,10.43-5.43,20.6-12.57,26-23.02,4.7-9.1,5.29-19.69,5.78-29.91,3.48-72.49,6.96-144.99,10.44-217.48.45-9.42.76-19.48-4.1-27.56-7.96-13.26-25.89-15.67-41.35-16.2-36.51-1.25-73.11.08-109.43,3.97-6.05.65-12.3,1.35-18.09-.51s-11-7.06-10.76-13.13,8.01-11.06,12.86-7.39"/>
      <path d="M824.78,158.48c-46.78-3.43-98.33-5.5-135.41,23.21-25.47,19.72-39.61,51.52-43.36,83.52-1.72,14.63-1.4,29.84,3.91,43.58,4.5,11.66,12.38,21.74,21.13,30.66,28.63,29.2,68.48,47.76,109.37,48.35,40.89.59,82.17-17.53,107.55-49.59-32.5,6.63-65.6,13.3-98.61,9.99-33.01-3.31-66.51-18.19-84.32-46.18-10.49-16.48-14.82-36.19-16.39-55.66-.49-6-.7-12.2,1.31-17.88,2.38-6.72,7.65-12.02,13.3-16.37,12.95-9.99,28.44-16.17,44.17-20.66,43.43-12.4,90.27-12.58,133.79-.51-10.25-24.92-38.18-41.28-64.93-38.04"/>
      <path d="M1099.31,327.13c-1.04-16.24-5.34-32.09-10.22-47.62-6.64-21.17-14.66-42.45-28.88-59.48s-35.76-29.33-57.86-27.36l11.46,8.06c-9.6-4.84-21.65-2.31-30.46,3.84s-14.95,15.39-20.3,24.72c-33.79,58.89-42.5,136.97-4.34,193.12,6.14,9.04,13.55,17.5,23.04,22.93,10.17,5.82,22.25,7.8,33.93,6.94,14.68-1.08,28.73-6.44,41.9-13.02,8.81-4.4,17.59-9.61,23.34-17.6,5.55-7.72,7.75-17.28,9.82-26.56,5-22.37,10.02-45.1,8.56-67.98ZM1044.61,385.12c-.99,2.6-2.54,5.54-5.3,5.89-2.64.34-4.83-1.91-6.51-3.96-9.38-11.43-18.12-23.38-26.17-35.77-4.43-6.82-8.69-13.86-11.07-21.63-2.71-8.84-2.88-18.24-2.72-27.48.31-19.06,1.88-38.1,4.69-56.95l-3.94-12.14c24.64-.16,48.51,16.51,56.84,39.69,3.93,10.94,4.6,22.75,4.82,34.37.51,26.4-1.19,53.33-10.63,77.98Z"/>
      <path d="M1088.11,117.33c-34.97-1.61-70.04-.74-104.89,2.6,54.08,28.79,113.88,46.78,174.87,52.6,9.76.93,21.43,2.81,25.34,11.81,1.55,3.56,1.48,7.58,1.37,11.46-2.92,104.56-17.94,208.78-44.66,309.91,41.16-68.04,83.38-139.22,90.28-218.44,2.72-31.22-.2-62.66-4.27-93.74,46.5.32,92.99.64,139.49.96-37.59-27.99-85.35-37.58-131.37-46.42-58.79-11.3-117.57-22.6-176.36-33.89"/>
      <path d="M1147.64,451.26c14.39,66.72-11.97,140.57-65.37,183.09,44.7-33.9,82.91-77.24,106.57-128.1,23.66-50.86,32.16-109.47,19.2-164.06"/>
      <path d="M101.22,524.61c-6.39,5.53-6.78,15.75-3.17,23.39s10.32,13.3,16.86,18.64c47.91,39.14,98.16,75.42,150.39,108.57-70.78-45.54-129.36-109.85-168.12-184.56-11.2,15.95-17.69,35.15-18.48,54.63-.35,8.66,5.3,20.65,13.19,17.05"/>
      <path d="M1049.46,561.24c-73.75,33.92-147.49,67.85-221.24,101.77,46.34-67.14,132.31-94.76,189.19-153.24,2.98-3.06,6.17-6.37,10.36-7.14,4.94-.91,9.75,1.96,13.67,5.1,12.85,10.28,22.47,26.1,20.94,42.48s-17.19,31.45-33.38,28.49"/>
      <path d="M95.01,73.76C146.32,26.58,215.8-.32,285.5,0c-53.42,38.39-113.22,66.8-172.69,94.92-9.92,4.69-21.41,9.43-31.46,5.04-10.06-4.39-11.79-22.73-.98-24.58"/>
      <path d="M1149.55,53.69c-78.28.12-156.56.25-234.84.37-20.36.03-42.62-.6-58.09-13.83,25.05-11.78,53.74-12.13,81.42-12.25,39.91-.18,79.81-.37,119.72-.55,36.19-.17,73-.25,107.69,10.04,34.7,10.29,67.61,32.66,81.82,65.94-47.53-22.79-95.38-44.9-143.53-66.33"/>
    </g>
  </g>
</svg>
