<?xml version="1.0" encoding="UTF-8"?>
<svg id="Layer_2" data-name="Layer 2" xmlns="http://www.w3.org/2000/svg" viewBox="0 0 297.8 297.8">
  <defs>
    <style>
      .cls-1 {
        fill: #f3d8a6;
      }

      .cls-2 {
        fill: #1c1312;
      }
    </style>
  </defs>
  <g id="Layer_1-2" data-name="Layer 1">
    <g>
      <rect class="cls-1" x="37.22" y="260.57" width="74.45" height="37.22"/>
      <path class="cls-1" d="M111.67,0v74.45h0c0,20.56-16.67,37.22-37.22,37.22h0c-20.56,0-37.22-16.67-37.22-37.22h0V0H0v148.9h148.9V0h-37.22Z"/>
      <rect class="cls-2" x="186.12" y="260.57" width="74.45" height="37.22"/>
      <path class="cls-2" d="M260.57,0v74.45s0,0,0,0h0c0,20.56-16.67,37.22-37.22,37.22h0c-20.56,0-37.22-16.67-37.22-37.22h0s0-74.45,0-74.45h-37.22s0,148.9,0,148.9h148.9s0-148.9,0-148.9h-37.22Z"/>
      <polygon class="cls-2" points="0 148.9 0 297.8 37.22 297.8 37.22 260.57 37.22 186.12 111.67 186.12 111.67 260.57 111.67 297.8 148.9 297.8 148.9 148.9 0 148.9"/>
      <path class="cls-2" d="M37.22,0v74.45c0-20.56,16.67-37.22,37.22-37.22s37.22,16.67,37.22,37.22V0H37.22Z"/>
      <polygon class="cls-1" points="148.9 148.9 148.9 297.8 186.12 297.8 186.12 260.57 186.12 186.12 260.57 186.12 260.57 260.57 260.57 297.8 297.8 297.8 297.8 148.9 148.9 148.9"/>
      <path class="cls-1" d="M186.12,0v74.45c0-20.56,16.67-37.22,37.22-37.22,20.56,0,37.22,16.67,37.22,37.22V0s-74.45,0-74.45,0Z"/>
    </g>
  </g>
</svg>
