<svg width="240" height="80" viewBox="0 0 240 80" fill="none" xmlns="http://www.w3.org/2000/svg">
  <rect width="240" height="80" rx="16" fill="#8CA1C6"/>
  <rect x="8" y="8" width="224" height="64" rx="14" fill="#987AA5" stroke="#C78C2C" stroke-width="4"/>
  <path d="M16 56H224" stroke="#C78C2C" stroke-width="4" stroke-linecap="round" stroke-dasharray="10 8"/>
  <g fill="#FFF3D6">
    <path d="M56.2 46.4c3.6 0 6.5-1.6 7.6-4.4l-5.2-1.2c-.4 1.2-1.4 1.8-2.6 1.8-1.8 0-3-1.2-3-3.2s1.2-3.2 3-3.2c1.2 0 2.2.6 2.6 1.8l5.2-1.2c-1.1-2.8-4-4.4-7.6-4.4-5.4 0-9 3.6-9 7s3.6 7 9 7Z"/>
    <path d="M74.4 46.2c5 0 8.6-3.2 8.6-7.2s-3.6-7.2-8.6-7.2c-5 0-8.6 3.2-8.6 7.2s3.6 7.2 8.6 7.2Zm0-4.4c-1.8 0-3-1.2-3-2.8s1.2-2.8 3-2.8 3 1.2 3 2.8-1.2 2.8-3 2.8Z"/>
    <path d="M91.2 46.2c3.6 0 5.8-1.4 6.8-3.4l-4.8-1.4c-.4.8-1 1.2-2 1.2-1.2 0-2-.6-2-1.6h8.8c.2-.6.2-1.2.2-1.8 0-3.8-2.8-6.6-7.4-6.6-4.6 0-8 3.2-8 7.2s3.4 6.4 8.4 6.4Zm-2-8.4c.2-1 .8-1.6 1.8-1.6s1.8.6 1.8 1.6H89.2Z"/>
    <path d="M110 46V28h-6v18h6Z"/>
    <path d="M120.4 46.2c2.4 0 4.2-1 5.2-2.6V46h5.8V28h-5.8v6.6c-.8-1.4-2.4-2.4-4.4-2.4-4.2 0-7.4 3-7.4 7 0 4 3.2 7 7.4 7Zm1.8-4.4c-1.6 0-2.8-1.2-2.8-2.6s1.2-2.6 2.8-2.6 2.8 1.2 2.8 2.6-1.2 2.6-2.8 2.6Z"/>
    <path d="M144.2 46.2c2.2 0 4.2-1 5.2-2.6V46h5.8V28h-5.8v6.6c-.8-1.4-2.6-2.4-4.6-2.4-4 0-7.2 3-7.2 7 0 4 3.2 7 6.6 7Zm1.6-4.4c-1.4 0-2.6-1.2-2.6-2.6s1.2-2.6 2.6-2.6 2.6 1.2 2.6 2.6-1.2 2.6-2.6 2.6Z"/>
    <path d="M164.6 46V33.8h2.4c2 0 3 .8 3 2.4V46h6V34.8c0-4.6-3-6.8-7.8-6.8h-7.6V46h4Z"/>
    <path d="M184.4 46.2c2.2 0 4.2-1 5.2-2.6V46h5.8V28h-5.8v6.6c-.8-1.4-2.6-2.4-4.6-2.4-4 0-7.2 3-7.2 7 0 4 3.2 7 6.6 7Zm1.6-4.4c-1.4 0-2.6-1.2-2.6-2.6s1.2-2.6 2.6-2.6 2.6 1.2 2.6 2.6-1.2 2.6-2.6 2.6Z"/>
  </g>
  <circle cx="38" cy="30" r="10" fill="#CC480F" stroke="#FFF3D6" stroke-width="4"/>
  <circle cx="202" cy="24" r="6" fill="#9A9D27" stroke="#FFF3D6" stroke-width="3"/>
</svg>
