<?xml version="1.0" encoding="UTF-8"?>
<svg id="Layer_2" data-name="Layer 2" xmlns="http://www.w3.org/2000/svg" viewBox="0 0 216.96 216.96">
  <defs>
    <style>
      .cls-1 {
        fill: #844660;
      }
    </style>
  </defs>
  <g id="Layer_1-2" data-name="Layer 1">
    <g>
      <polygon class="cls-1" points="58.62 124.07 66.95 124.07 62.73 97.49 58.62 124.07"/>
      <path class="cls-1" d="M93.04,76.49v47.56c2.13-.75,10.24-9.17,10.24-26.23s-5.65-21.33-10.24-21.33Z"/>
      <path class="cls-1" d="M197.12,128.32l19.84-19.84-19.84-19.84v-31.13h1.85l1.69,17.55h7.26v-25.86h-33.35v16.9L108.48,0l-56.95,56.95v-7.61h-15.45v23.06l-8.6,8.6v-31.66h-15.45v8.31h3.52v35.28L0,108.48l15.56,15.56v34.39h-3.52v8.31h15.45v-30.77l8.6,8.6v22.17h15.45v-6.73l56.95,56.95,57.93-57.93s.09.01.14.01c6.5,0,11.03-4.51,13.74-13.89l5.19-5.19v18.47h-3.71v8.32h19.06v-8.32h-3.71v-30.1ZM49.2,164.48h-10.79v-37.68h-13.26v37.68h-10.79v-3.65h3.52V55.39h-3.52v-3.65h10.79v72.31h13.26V51.74h10.79v3.65h-3.52v105.44h3.52v3.65ZM50.84,57.64l-2.82,2.82v-2.82h2.82ZM81.29,156.03h-9.28l-4.63-29.23h-9.18l-4.53,29.23h-6.08v-2.67h2.88l12.58-79.97h2.67l12.69,79.97h2.88v2.67ZM112.23,156.03h-8.96s.11-8-2.99-16.31c-2.67-7.14-7.25-12.9-7.25-12.9v29.22h-9.81v-2.67h3.2v-76.98h-3.2v-2.67h8.21c8.64,0,18.87,4.26,18.87,24.1,0,15.14-7.46,23.24-11.62,26.34,0,0,3.84,4.9,7.04,12.58,3.73,8.96,3.63,16.63,3.63,16.63h2.88v2.67ZM126.9,76.38h-3.2v76.98h3.2v2.67h-13.01v-2.67h3.2v-76.98h-3.2v-2.67h13.01v2.67ZM152.92,155.93s-1.92.64-5.01.64c-6.61,0-18.23-3.73-18.23-42.01s11.62-41.37,18.23-41.37c3.09,0,5.01.75,5.01.75v9.92h-2.67l-1.39-7.89c-.21-.11-.75-.11-.96-.11-4.05,0-11.2,8.74-11.2,38.71,0,32.2,7.25,39.03,13.33,39.03,1.07,0,1.92-.11,2.88-.32v2.67ZM166.55,156.78c-5.97,0-14.5-4.27-14.5-41.9s8.53-41.9,14.5-41.9,14.5,4.27,14.5,41.9-8.53,41.9-14.5,41.9ZM181.98,73.5l1.64-15.99h1.87v19.5l-3.51-3.51ZM198.5,160.83v3.66h-14.4v-3.66h3.71V55.25h-6.3l-1.8,17.55h-2.81v-21.2h28.69v21.2h-2.81l-1.69-17.55h-6.3v105.58h3.71Z"/>
      <path class="cls-1" d="M166.55,75.74c-3.84,0-7.46,4.69-7.46,39.13s3.63,39.13,7.46,39.13,7.46-4.69,7.46-39.13-3.63-39.13-7.46-39.13Z"/>
    </g>
  </g>
</svg>
