<?xml version="1.0" encoding="UTF-8"?>
<svg id="Layer_2" data-name="Layer 2" xmlns="http://www.w3.org/2000/svg" viewBox="0 0 130.46 185.53">
  <defs>
    <style>
      .cls-1 {
        fill: #050606;
      }
    </style>
  </defs>
  <g id="Layer_1-2" data-name="Layer 1">
    <path class="cls-1" d="M90.24,0h-50.01C18.01,0,0,18.01,0,40.23v138.84c0,3.57,2.9,6.47,6.47,6.47s6.47-2.9,6.47-6.47c0,3.57,2.9,6.47,6.47,6.47s6.47-2.9,6.47-6.47c0,3.57,2.9,6.47,6.47,6.47h0c3.57,0,6.47-2.9,6.47-6.47v-81.69c.47.02.94.04,1.41.04h50.01c.47,0,.94-.02,1.41-.04v81.69c0,3.57,2.9,6.47,6.47,6.47s6.47-2.9,6.47-6.47c0,3.57,2.9,6.47,6.47,6.47s6.47-2.9,6.47-6.47c0,3.57,2.9,6.47,6.47,6.47s6.47-2.9,6.47-6.47V40.23C130.46,18.01,112.46,0,90.24,0Z"/>
  </g>
</svg>
