<?xml version="1.0" encoding="UTF-8"?>
<svg id="Layer_2" data-name="Layer 2" xmlns="http://www.w3.org/2000/svg" viewBox="0 0 69.95 213.18">
  <defs>
    <style>
      .cls-1 {
        fill: #5e110f;
      }
    </style>
  </defs>
  <g id="Layer_1-2" data-name="Layer 1">
    <path class="cls-1" d="M66.55,6.88c-.33-.44-.68-.86-1.05-1.27-.18-.2-.37-.4-.57-.6-.58-.58-1.2-1.12-1.86-1.61-.66-.49-1.36-.94-2.08-1.34-.49-.26-.99-.5-1.5-.72-.77-.33-1.57-.6-2.39-.81-.27-.07-.55-.13-.83-.19-1.12-.23-2.27-.35-3.45-.35H.14v82.13h-.06c0,.49,0,.98-.03,1.47,0,.12,0,.23-.01.35-.01.26-.03.52-.04.78v90.72c0,20.84,16.89,37.73,37.73,37.73h0c17.79,0,32.22-14.42,32.22-32.22V17.14c0-1.77-.27-3.49-.77-5.1-.58-1.88-1.48-3.62-2.63-5.16Z"/>
  </g>
</svg>